<svg xmlns="http://www.w3.org/2000/svg" xmlns:xlink="http://www.w3.org/1999/xlink" contentStyleType="text/css" height="1325px" preserveAspectRatio="none" style="width:1214px;height:1325px;background:#FFFFFF;" version="1.1" viewBox="0 0 1214 1325" width="1214px" zoomAndPan="magnify"><defs/><g><!--class Faculty--><g id="elem_Faculty"><rect codeLine="3" fill="#F1F1F1" height="113.1875" id="Faculty" rx="2.5" ry="2.5" style="stroke:#181818;stroke-width:0.5;" width="126.5771" x="820.04" y="7"/><ellipse cx="854.7099" cy="23" fill="#ADD1B2" rx="11" ry="11" style="stroke:#181818;stroke-width:1;"/><path d="M858.8193,29 L851.1005,29 L851.1005,16.6094 L858.8193,16.6094 L858.8193,18.7656 L853.5537,18.7656 L853.5537,21.4375 L858.3193,21.4375 L858.3193,23.5938 L853.5537,23.5938 L853.5537,26.8438 L858.8193,26.8438 L858.8193,29 Z " fill="#000000"/><text fill="#000000" font-family="sans-serif" font-size="14" lengthAdjust="spacing" textLength="50.8662" x="873.081" y="27.8467">Faculty</text><line style="stroke:#181818;stroke-width:0.5;" x1="821.04" x2="945.6171" y1="39" y2="39"/><ellipse cx="831.04" cy="52.6484" fill="#000000" rx="3" ry="3" style="stroke:#000000;stroke-width:1;"/><text fill="#000000" font-family="sans-serif" font-size="14" lengthAdjust="spacing" textLength="40.4346" x="840.04" y="55.9951">id: Int</text><ellipse cx="831.04" cy="68.9453" fill="#000000" rx="3" ry="3" style="stroke:#000000;stroke-width:1;"/><text fill="#000000" font-family="sans-serif" font-size="14" lengthAdjust="spacing" textLength="90.6514" x="840.04" y="72.292">name: String</text><ellipse cx="831.04" cy="85.2422" fill="#000000" rx="3" ry="3" style="stroke:#000000;stroke-width:1;"/><text fill="#000000" font-family="sans-serif" font-size="14" lengthAdjust="spacing" textLength="97.8291" x="840.04" y="88.5889">Major: Major[]</text><ellipse cx="831.04" cy="101.5391" fill="#000000" rx="3" ry="3" style="stroke:#000000;stroke-width:1;"/><text fill="#000000" font-family="sans-serif" font-size="14" lengthAdjust="spacing" textLength="100.5771" x="840.04" y="104.8857">Batch: Batch[]</text><line style="stroke:#181818;stroke-width:0.5;" x1="821.04" x2="945.6171" y1="112.1875" y2="112.1875"/></g><!--class Batch--><g id="elem_Batch"><rect codeLine="10" fill="#F1F1F1" height="178.375" id="Batch" rx="2.5" ry="2.5" style="stroke:#181818;stroke-width:0.5;" width="159.9639" x="620.34" y="180.19"/><ellipse cx="675.9504" cy="196.19" fill="#ADD1B2" rx="11" ry="11" style="stroke:#181818;stroke-width:1;"/><path d="M680.0597,202.19 L672.341,202.19 L672.341,189.7994 L680.0597,189.7994 L680.0597,191.9556 L674.7941,191.9556 L674.7941,194.6275 L679.5597,194.6275 L679.5597,196.7838 L674.7941,196.7838 L674.7941,200.0338 L680.0597,200.0338 L680.0597,202.19 Z " fill="#000000"/><text fill="#000000" font-family="sans-serif" font-size="14" lengthAdjust="spacing" textLength="40.2432" x="696.4504" y="201.0367">Batch</text><line style="stroke:#181818;stroke-width:0.5;" x1="621.34" x2="779.3039" y1="212.19" y2="212.19"/><ellipse cx="631.34" cy="225.8384" fill="#000000" rx="3" ry="3" style="stroke:#000000;stroke-width:1;"/><text fill="#000000" font-family="sans-serif" font-size="14" lengthAdjust="spacing" textLength="40.4346" x="640.34" y="229.1851">id: Int</text><ellipse cx="631.34" cy="242.1353" fill="#000000" rx="3" ry="3" style="stroke:#000000;stroke-width:1;"/><text fill="#000000" font-family="sans-serif" font-size="14" lengthAdjust="spacing" textLength="90.6514" x="640.34" y="245.482">name: String</text><ellipse cx="631.34" cy="258.4322" fill="#000000" rx="3" ry="3" style="stroke:#000000;stroke-width:1;"/><text fill="#000000" font-family="sans-serif" font-size="14" lengthAdjust="spacing" textLength="86.9053" x="640.34" y="261.7789">Major: Major</text><ellipse cx="631.34" cy="274.7291" fill="#000000" rx="3" ry="3" style="stroke:#000000;stroke-width:1;"/><text fill="#000000" font-family="sans-serif" font-size="14" lengthAdjust="spacing" textLength="81.1016" x="640.34" y="278.0757">majorId: Int</text><ellipse cx="631.34" cy="291.0259" fill="#000000" rx="3" ry="3" style="stroke:#000000;stroke-width:1;"/><text fill="#000000" font-family="sans-serif" font-size="14" lengthAdjust="spacing" textLength="110.8994" x="640.34" y="294.3726">Faculty: Faculty</text><ellipse cx="631.34" cy="307.3228" fill="#000000" rx="3" ry="3" style="stroke:#000000;stroke-width:1;"/><text fill="#000000" font-family="sans-serif" font-size="14" lengthAdjust="spacing" textLength="88.416" x="640.34" y="310.6695">facultyId: Int</text><ellipse cx="631.34" cy="323.6197" fill="#000000" rx="3" ry="3" style="stroke:#000000;stroke-width:1;"/><text fill="#000000" font-family="sans-serif" font-size="14" lengthAdjust="spacing" textLength="130.3135" x="640.34" y="326.9664">Student: Student[]</text><ellipse cx="631.34" cy="339.9166" fill="#000000" rx="3" ry="3" style="stroke:#000000;stroke-width:1;"/><text fill="#000000" font-family="sans-serif" font-size="14" lengthAdjust="spacing" textLength="133.9639" x="640.34" y="343.2632">Memory: Memory[]</text><line style="stroke:#181818;stroke-width:0.5;" x1="621.34" x2="779.3039" y1="350.565" y2="350.565"/></g><!--class Major--><g id="elem_Major"><rect codeLine="21" fill="#F1F1F1" height="129.4844" id="Major" rx="2.5" ry="2.5" style="stroke:#181818;stroke-width:0.5;" width="136.8994" x="814.88" y="204.63"/><ellipse cx="859.6451" cy="220.63" fill="#ADD1B2" rx="11" ry="11" style="stroke:#181818;stroke-width:1;"/><path d="M863.7545,226.63 L856.0358,226.63 L856.0358,214.2394 L863.7545,214.2394 L863.7545,216.3956 L858.4889,216.3956 L858.4889,219.0675 L863.2545,219.0675 L863.2545,221.2238 L858.4889,221.2238 L858.4889,224.4738 L863.7545,224.4738 L863.7545,226.63 Z " fill="#000000"/><text fill="#000000" font-family="sans-serif" font-size="14" lengthAdjust="spacing" textLength="38.8691" x="880.1451" y="225.4767">Major</text><line style="stroke:#181818;stroke-width:0.5;" x1="815.88" x2="950.7794" y1="236.63" y2="236.63"/><ellipse cx="825.88" cy="250.2784" fill="#000000" rx="3" ry="3" style="stroke:#000000;stroke-width:1;"/><text fill="#000000" font-family="sans-serif" font-size="14" lengthAdjust="spacing" textLength="40.4346" x="834.88" y="253.6251">id: Int</text><ellipse cx="825.88" cy="266.5753" fill="#000000" rx="3" ry="3" style="stroke:#000000;stroke-width:1;"/><text fill="#000000" font-family="sans-serif" font-size="14" lengthAdjust="spacing" textLength="90.6514" x="834.88" y="269.922">name: String</text><ellipse cx="825.88" cy="282.8722" fill="#000000" rx="3" ry="3" style="stroke:#000000;stroke-width:1;"/><text fill="#000000" font-family="sans-serif" font-size="14" lengthAdjust="spacing" textLength="95.1768" x="834.88" y="286.2189">faculty_id: Int</text><ellipse cx="825.88" cy="299.1691" fill="#000000" rx="3" ry="3" style="stroke:#000000;stroke-width:1;"/><text fill="#000000" font-family="sans-serif" font-size="14" lengthAdjust="spacing" textLength="110.8994" x="834.88" y="302.5157">Faculty: Faculty</text><ellipse cx="825.88" cy="315.4659" fill="#000000" rx="3" ry="3" style="stroke:#000000;stroke-width:1;"/><text fill="#000000" font-family="sans-serif" font-size="14" lengthAdjust="spacing" textLength="100.5771" x="834.88" y="318.8126">Batch: Batch[]</text><line style="stroke:#181818;stroke-width:0.5;" x1="815.88" x2="950.7794" y1="326.1144" y2="326.1144"/></g><!--class Student--><g id="elem_Student"><rect codeLine="29" fill="#F1F1F1" height="129.4844" id="Student" rx="2.5" ry="2.5" style="stroke:#181818;stroke-width:0.5;" width="115.6533" x="534.5" y="475.6"/><ellipse cx="562.3439" cy="491.6" fill="#ADD1B2" rx="11" ry="11" style="stroke:#181818;stroke-width:1;"/><path d="M566.4533,497.6 L558.7345,497.6 L558.7345,485.2094 L566.4533,485.2094 L566.4533,487.3656 L561.1876,487.3656 L561.1876,490.0375 L565.9533,490.0375 L565.9533,492.1938 L561.1876,492.1938 L561.1876,495.4438 L566.4533,495.4438 L566.4533,497.6 Z " fill="#000000"/><text fill="#000000" font-family="sans-serif" font-size="14" lengthAdjust="spacing" textLength="55.1113" x="579.1981" y="496.4467">Student</text><line style="stroke:#181818;stroke-width:0.5;" x1="535.5" x2="649.1533" y1="507.6" y2="507.6"/><ellipse cx="545.5" cy="521.2484" fill="#000000" rx="3" ry="3" style="stroke:#000000;stroke-width:1;"/><text fill="#000000" font-family="sans-serif" font-size="14" lengthAdjust="spacing" textLength="40.4346" x="554.5" y="524.5951">id: Int</text><ellipse cx="545.5" cy="537.5453" fill="#000000" rx="3" ry="3" style="stroke:#000000;stroke-width:1;"/><text fill="#000000" font-family="sans-serif" font-size="14" lengthAdjust="spacing" textLength="71.21" x="554.5" y="540.892">userId: Int</text><ellipse cx="545.5" cy="553.8422" fill="#000000" rx="3" ry="3" style="stroke:#000000;stroke-width:1;"/><text fill="#000000" font-family="sans-serif" font-size="14" lengthAdjust="spacing" textLength="72.9873" x="554.5" y="557.1889">User: User</text><ellipse cx="545.5" cy="570.1391" fill="#000000" rx="3" ry="3" style="stroke:#000000;stroke-width:1;"/><text fill="#000000" font-family="sans-serif" font-size="14" lengthAdjust="spacing" textLength="86.96" x="554.5" y="573.4857">batch_id: Int</text><ellipse cx="545.5" cy="586.4359" fill="#000000" rx="3" ry="3" style="stroke:#000000;stroke-width:1;"/><text fill="#000000" font-family="sans-serif" font-size="14" lengthAdjust="spacing" textLength="89.6533" x="554.5" y="589.7826">Batch: Batch</text><line style="stroke:#181818;stroke-width:0.5;" x1="535.5" x2="649.1533" y1="597.0844" y2="597.0844"/></g><!--class User--><g id="elem_User"><rect codeLine="37" fill="#F1F1F1" height="308.75" id="User" rx="2.5" ry="2.5" style="stroke:#181818;stroke-width:0.5;" width="236.4238" x="469.11" y="722.12"/><ellipse cx="567.1168" cy="738.12" fill="#ADD1B2" rx="11" ry="11" style="stroke:#181818;stroke-width:1;"/><path d="M571.2262,744.12 L563.5075,744.12 L563.5075,731.7294 L571.2262,731.7294 L571.2262,733.8856 L565.9606,733.8856 L565.9606,736.5575 L570.7262,736.5575 L570.7262,738.7138 L565.9606,738.7138 L565.9606,741.9638 L571.2262,741.9638 L571.2262,744.12 Z " fill="#000000"/><text fill="#000000" font-family="sans-serif" font-size="14" lengthAdjust="spacing" textLength="31.9102" x="587.6168" y="742.9667">User</text><line style="stroke:#181818;stroke-width:0.5;" x1="470.11" x2="704.5338" y1="754.12" y2="754.12"/><ellipse cx="480.11" cy="767.7684" fill="#000000" rx="3" ry="3" style="stroke:#000000;stroke-width:1;"/><text fill="#000000" font-family="sans-serif" font-size="14" lengthAdjust="spacing" textLength="40.4346" x="489.11" y="771.1151">id: Int</text><ellipse cx="480.11" cy="784.0653" fill="#000000" rx="3" ry="3" style="stroke:#000000;stroke-width:1;"/><text fill="#000000" font-family="sans-serif" font-size="14" lengthAdjust="spacing" textLength="89.5576" x="489.11" y="787.412">email: String</text><ellipse cx="480.11" cy="800.3622" fill="#000000" rx="3" ry="3" style="stroke:#000000;stroke-width:1;"/><text fill="#000000" font-family="sans-serif" font-size="14" lengthAdjust="spacing" textLength="117.6602" x="489.11" y="803.7089">password: String</text><text fill="#000000" font-family="sans-serif" font-size="14" lengthAdjust="spacing" textLength="159.1133" x="489.11" y="820.0057">profile_picture: String?</text><ellipse cx="480.11" cy="832.9559" fill="#000000" rx="3" ry="3" style="stroke:#000000;stroke-width:1;"/><text fill="#000000" font-family="sans-serif" font-size="14" lengthAdjust="spacing" textLength="125.0088" x="489.11" y="836.3026">first_name: String</text><ellipse cx="480.11" cy="849.2528" fill="#000000" rx="3" ry="3" style="stroke:#000000;stroke-width:1;"/><text fill="#000000" font-family="sans-serif" font-size="14" lengthAdjust="spacing" textLength="122.9033" x="489.11" y="852.5995">last_name: String</text><text fill="#000000" font-family="sans-serif" font-size="14" lengthAdjust="spacing" textLength="105.0205" x="489.11" y="868.8964">details: String?</text><text fill="#000000" font-family="sans-serif" font-size="14" lengthAdjust="spacing" textLength="118.0635" x="489.11" y="885.1932">contacts: String?</text><text fill="#000000" font-family="sans-serif" font-size="14" lengthAdjust="spacing" textLength="126.8203" x="489.11" y="901.4901">Student: Student?</text><ellipse cx="480.11" cy="914.4403" fill="#000000" rx="3" ry="3" style="stroke:#000000;stroke-width:1;"/><text fill="#000000" font-family="sans-serif" font-size="14" lengthAdjust="spacing" textLength="210.4238" x="489.11" y="917.787">conversations: Conversation[]</text><ellipse cx="480.11" cy="930.7372" fill="#000000" rx="3" ry="3" style="stroke:#000000;stroke-width:1;"/><text fill="#000000" font-family="sans-serif" font-size="14" lengthAdjust="spacing" textLength="180.373" x="489.11" y="934.0839">sentMessages: Message[]</text><ellipse cx="480.11" cy="947.0341" fill="#000000" rx="3" ry="3" style="stroke:#000000;stroke-width:1;"/><text fill="#000000" font-family="sans-serif" font-size="14" lengthAdjust="spacing" textLength="107.5977" x="489.11" y="950.3807">Events: Event[]</text><ellipse cx="480.11" cy="963.3309" fill="#000000" rx="3" ry="3" style="stroke:#000000;stroke-width:1;"/><text fill="#000000" font-family="sans-serif" font-size="14" lengthAdjust="spacing" textLength="178.5273" x="489.11" y="966.6776">Participants: Participant[]</text><ellipse cx="480.11" cy="979.6278" fill="#000000" rx="3" ry="3" style="stroke:#000000;stroke-width:1;"/><text fill="#000000" font-family="sans-serif" font-size="14" lengthAdjust="spacing" textLength="164.5684" x="489.11" y="982.9745">Comments: Comment[]</text><ellipse cx="480.11" cy="995.9247" fill="#000000" rx="3" ry="3" style="stroke:#000000;stroke-width:1;"/><text fill="#000000" font-family="sans-serif" font-size="14" lengthAdjust="spacing" textLength="133.9639" x="489.11" y="999.2714">Memory: Memory[]</text><ellipse cx="480.11" cy="1012.2216" fill="#000000" rx="3" ry="3" style="stroke:#000000;stroke-width:1;"/><text fill="#000000" font-family="sans-serif" font-size="14" lengthAdjust="spacing" textLength="117.6943" x="489.11" y="1015.5682">Socials: Socials[]</text><line style="stroke:#181818;stroke-width:0.5;" x1="470.11" x2="704.5338" y1="1022.87" y2="1022.87"/></g><!--class Socials--><g id="elem_Socials"><rect codeLine="56" fill="#F1F1F1" height="129.4844" id="Socials" rx="2.5" ry="2.5" style="stroke:#181818;stroke-width:0.5;" width="116.6514" x="7" y="1139.77"/><ellipse cx="38.1323" cy="1155.77" fill="#ADD1B2" rx="11" ry="11" style="stroke:#181818;stroke-width:1;"/><path d="M42.2417,1161.77 L34.5229,1161.77 L34.5229,1149.3794 L42.2417,1149.3794 L42.2417,1151.5356 L36.9761,1151.5356 L36.9761,1154.2075 L41.7417,1154.2075 L41.7417,1156.3638 L36.9761,1156.3638 L36.9761,1159.6138 L42.2417,1159.6138 L42.2417,1161.77 Z " fill="#000000"/><text fill="#000000" font-family="sans-serif" font-size="14" lengthAdjust="spacing" textLength="48.8018" x="55.7173" y="1160.6167">Socials</text><line style="stroke:#181818;stroke-width:0.5;" x1="8" x2="122.6514" y1="1171.77" y2="1171.77"/><ellipse cx="18" cy="1185.4184" fill="#000000" rx="3" ry="3" style="stroke:#000000;stroke-width:1;"/><text fill="#000000" font-family="sans-serif" font-size="14" lengthAdjust="spacing" textLength="40.4346" x="27" y="1188.7651">id: Int</text><ellipse cx="18" cy="1201.7153" fill="#000000" rx="3" ry="3" style="stroke:#000000;stroke-width:1;"/><text fill="#000000" font-family="sans-serif" font-size="14" lengthAdjust="spacing" textLength="90.6514" x="27" y="1205.062">name: String</text><ellipse cx="18" cy="1218.0122" fill="#000000" rx="3" ry="3" style="stroke:#000000;stroke-width:1;"/><text fill="#000000" font-family="sans-serif" font-size="14" lengthAdjust="spacing" textLength="75.708" x="27" y="1221.3589">link: String</text><ellipse cx="18" cy="1234.3091" fill="#000000" rx="3" ry="3" style="stroke:#000000;stroke-width:1;"/><text fill="#000000" font-family="sans-serif" font-size="14" lengthAdjust="spacing" textLength="71.21" x="27" y="1237.6557">userId: Int</text><ellipse cx="18" cy="1250.6059" fill="#000000" rx="3" ry="3" style="stroke:#000000;stroke-width:1;"/><text fill="#000000" font-family="sans-serif" font-size="14" lengthAdjust="spacing" textLength="72.9873" x="27" y="1253.9526">User: User</text><line style="stroke:#181818;stroke-width:0.5;" x1="8" x2="122.6514" y1="1261.2544" y2="1261.2544"/></g><!--class Memory--><g id="elem_Memory"><rect codeLine="64" fill="#F1F1F1" height="243.5625" id="Memory" rx="2.5" ry="2.5" style="stroke:#181818;stroke-width:0.5;" width="247.6553" x="688.5" y="418.56"/><ellipse cx="779.6094" cy="434.56" fill="#ADD1B2" rx="11" ry="11" style="stroke:#181818;stroke-width:1;"/><path d="M783.7188,440.56 L776,440.56 L776,428.1694 L783.7188,428.1694 L783.7188,430.3256 L778.4531,430.3256 L778.4531,432.9975 L783.2188,432.9975 L783.2188,435.1538 L778.4531,435.1538 L778.4531,438.4038 L783.7188,438.4038 L783.7188,440.56 Z " fill="#000000"/><text fill="#000000" font-family="sans-serif" font-size="14" lengthAdjust="spacing" textLength="56.9365" x="800.1094" y="439.4067">Memory</text><line style="stroke:#181818;stroke-width:0.5;" x1="689.5" x2="935.1553" y1="450.56" y2="450.56"/><ellipse cx="699.5" cy="464.2084" fill="#000000" rx="3" ry="3" style="stroke:#000000;stroke-width:1;"/><text fill="#000000" font-family="sans-serif" font-size="14" lengthAdjust="spacing" textLength="40.4346" x="708.5" y="467.5551">id: Int</text><ellipse cx="699.5" cy="480.5053" fill="#000000" rx="3" ry="3" style="stroke:#000000;stroke-width:1;"/><text fill="#000000" font-family="sans-serif" font-size="14" lengthAdjust="spacing" textLength="78.3193" x="708.5" y="483.852">title: String</text><ellipse cx="699.5" cy="496.8022" fill="#000000" rx="3" ry="3" style="stroke:#000000;stroke-width:1;"/><text fill="#000000" font-family="sans-serif" font-size="14" lengthAdjust="spacing" textLength="120.0732" x="708.5" y="500.1489">image_url: String</text><text fill="#000000" font-family="sans-serif" font-size="14" lengthAdjust="spacing" textLength="136.2197" x="708.5" y="516.4457">description: String?</text><ellipse cx="699.5" cy="529.3959" fill="#000000" rx="3" ry="3" style="stroke:#000000;stroke-width:1;"/><text fill="#000000" font-family="sans-serif" font-size="14" lengthAdjust="spacing" textLength="163.625" x="708.5" y="532.7426">date_posted: DateTime</text><ellipse cx="699.5" cy="545.6928" fill="#000000" rx="3" ry="3" style="stroke:#000000;stroke-width:1;"/><text fill="#000000" font-family="sans-serif" font-size="14" lengthAdjust="spacing" textLength="59.4521" x="708.5" y="549.0395">likes: Int</text><ellipse cx="699.5" cy="561.9897" fill="#000000" rx="3" ry="3" style="stroke:#000000;stroke-width:1;"/><text fill="#000000" font-family="sans-serif" font-size="14" lengthAdjust="spacing" textLength="86.96" x="708.5" y="565.3364">batch_id: Int</text><ellipse cx="699.5" cy="578.2866" fill="#000000" rx="3" ry="3" style="stroke:#000000;stroke-width:1;"/><text fill="#000000" font-family="sans-serif" font-size="14" lengthAdjust="spacing" textLength="77.9707" x="708.5" y="581.6332">user_id: Int</text><ellipse cx="699.5" cy="594.5834" fill="#000000" rx="3" ry="3" style="stroke:#000000;stroke-width:1;"/><text fill="#000000" font-family="sans-serif" font-size="14" lengthAdjust="spacing" textLength="89.6533" x="708.5" y="597.9301">Batch: Batch</text><ellipse cx="699.5" cy="610.8803" fill="#000000" rx="3" ry="3" style="stroke:#000000;stroke-width:1;"/><text fill="#000000" font-family="sans-serif" font-size="14" lengthAdjust="spacing" textLength="72.9873" x="708.5" y="614.227">User: User</text><ellipse cx="699.5" cy="627.1772" fill="#000000" rx="3" ry="3" style="stroke:#000000;stroke-width:1;"/><text fill="#000000" font-family="sans-serif" font-size="14" lengthAdjust="spacing" textLength="221.6553" x="708.5" y="630.5239">MemoryImage: MemoryImage[]</text><ellipse cx="699.5" cy="643.4741" fill="#000000" rx="3" ry="3" style="stroke:#000000;stroke-width:1;"/><text fill="#000000" font-family="sans-serif" font-size="14" lengthAdjust="spacing" textLength="164.5684" x="708.5" y="646.8207">Comments: Comment[]</text><line style="stroke:#181818;stroke-width:0.5;" x1="689.5" x2="935.1553" y1="654.1225" y2="654.1225"/></g><!--class Event--><g id="elem_Event"><rect codeLine="79" fill="#F1F1F1" height="227.2656" id="Event" rx="2.5" ry="2.5" style="stroke:#181818;stroke-width:0.5;" width="204.5273" x="159.06" y="1090.87"/><ellipse cx="237.0204" cy="1106.87" fill="#ADD1B2" rx="11" ry="11" style="stroke:#181818;stroke-width:1;"/><path d="M241.1298,1112.87 L233.4111,1112.87 L233.4111,1100.4794 L241.1298,1100.4794 L241.1298,1102.6356 L235.8642,1102.6356 L235.8642,1105.3075 L240.6298,1105.3075 L240.6298,1107.4638 L235.8642,1107.4638 L235.8642,1110.7138 L241.1298,1110.7138 L241.1298,1112.87 Z " fill="#000000"/><text fill="#000000" font-family="sans-serif" font-size="14" lengthAdjust="spacing" textLength="40.1064" x="257.5204" y="1111.7167">Event</text><line style="stroke:#181818;stroke-width:0.5;" x1="160.06" x2="362.5873" y1="1122.87" y2="1122.87"/><ellipse cx="170.06" cy="1136.5184" fill="#000000" rx="3" ry="3" style="stroke:#000000;stroke-width:1;"/><text fill="#000000" font-family="sans-serif" font-size="14" lengthAdjust="spacing" textLength="40.4346" x="179.06" y="1139.8651">id: Int</text><ellipse cx="170.06" cy="1152.8153" fill="#000000" rx="3" ry="3" style="stroke:#000000;stroke-width:1;"/><text fill="#000000" font-family="sans-serif" font-size="14" lengthAdjust="spacing" textLength="78.3193" x="179.06" y="1156.162">title: String</text><text fill="#000000" font-family="sans-serif" font-size="14" lengthAdjust="spacing" textLength="136.2197" x="179.06" y="1172.4589">description: String?</text><ellipse cx="170.06" cy="1185.4091" fill="#000000" rx="3" ry="3" style="stroke:#000000;stroke-width:1;"/><text fill="#000000" font-family="sans-serif" font-size="14" lengthAdjust="spacing" textLength="148.4971" x="179.06" y="1188.7557">start_date: DateTime</text><ellipse cx="170.06" cy="1201.7059" fill="#000000" rx="3" ry="3" style="stroke:#000000;stroke-width:1;"/><text fill="#000000" font-family="sans-serif" font-size="14" lengthAdjust="spacing" textLength="71.21" x="179.06" y="1205.0526">userId: Int</text><ellipse cx="170.06" cy="1218.0028" fill="#000000" rx="3" ry="3" style="stroke:#000000;stroke-width:1;"/><text fill="#000000" font-family="sans-serif" font-size="14" lengthAdjust="spacing" textLength="59.4521" x="179.06" y="1221.3495">likes: Int</text><text fill="#000000" font-family="sans-serif" font-size="14" lengthAdjust="spacing" textLength="127.5039" x="179.06" y="1237.6464">image_url: String?</text><text fill="#000000" font-family="sans-serif" font-size="14" lengthAdjust="spacing" textLength="113.9277" x="179.06" y="1253.9432">location: String?</text><ellipse cx="170.06" cy="1266.8934" fill="#000000" rx="3" ry="3" style="stroke:#000000;stroke-width:1;"/><text fill="#000000" font-family="sans-serif" font-size="14" lengthAdjust="spacing" textLength="72.9873" x="179.06" y="1270.2401">User: User</text><ellipse cx="170.06" cy="1283.1903" fill="#000000" rx="3" ry="3" style="stroke:#000000;stroke-width:1;"/><text fill="#000000" font-family="sans-serif" font-size="14" lengthAdjust="spacing" textLength="178.5273" x="179.06" y="1286.537">Participants: Participant[]</text><ellipse cx="170.06" cy="1299.4872" fill="#000000" rx="3" ry="3" style="stroke:#000000;stroke-width:1;"/><text fill="#000000" font-family="sans-serif" font-size="14" lengthAdjust="spacing" textLength="164.5684" x="179.06" y="1302.8339">Comments: Comment[]</text><line style="stroke:#181818;stroke-width:0.5;" x1="160.06" x2="362.5873" y1="1310.1356" y2="1310.1356"/></g><!--class MemoryImage--><g id="elem_MemoryImage"><rect codeLine="93" fill="#F1F1F1" height="113.1875" id="MemoryImage" rx="2.5" ry="2.5" style="stroke:#181818;stroke-width:0.5;" width="149.04" x="740.81" y="819.91"/><ellipse cx="763.126" cy="835.91" fill="#ADD1B2" rx="11" ry="11" style="stroke:#181818;stroke-width:1;"/><path d="M767.2354,841.91 L759.5166,841.91 L759.5166,829.5194 L767.2354,829.5194 L767.2354,831.6756 L761.9698,831.6756 L761.9698,834.3475 L766.7354,834.3475 L766.7354,836.5038 L761.9698,836.5038 L761.9698,839.7538 L767.2354,839.7538 L767.2354,841.91 Z " fill="#000000"/><text fill="#000000" font-family="sans-serif" font-size="14" lengthAdjust="spacing" textLength="100.7822" x="778.7518" y="840.7567">MemoryImage</text><line style="stroke:#181818;stroke-width:0.5;" x1="741.81" x2="888.85" y1="851.91" y2="851.91"/><ellipse cx="751.81" cy="865.5584" fill="#000000" rx="3" ry="3" style="stroke:#000000;stroke-width:1;"/><text fill="#000000" font-family="sans-serif" font-size="14" lengthAdjust="spacing" textLength="40.4346" x="760.81" y="868.9051">id: Int</text><ellipse cx="751.81" cy="881.8553" fill="#000000" rx="3" ry="3" style="stroke:#000000;stroke-width:1;"/><text fill="#000000" font-family="sans-serif" font-size="14" lengthAdjust="spacing" textLength="99.1689" x="760.81" y="885.202">memoryId: Int</text><ellipse cx="751.81" cy="898.1522" fill="#000000" rx="3" ry="3" style="stroke:#000000;stroke-width:1;"/><text fill="#000000" font-family="sans-serif" font-size="14" lengthAdjust="spacing" textLength="120.0732" x="760.81" y="901.4989">image_url: String</text><ellipse cx="751.81" cy="914.4491" fill="#000000" rx="3" ry="3" style="stroke:#000000;stroke-width:1;"/><text fill="#000000" font-family="sans-serif" font-size="14" lengthAdjust="spacing" textLength="123.04" x="760.81" y="917.7957">Memory: Memory</text><line style="stroke:#181818;stroke-width:0.5;" x1="741.81" x2="888.85" y1="925.0975" y2="925.0975"/></g><!--class Comment--><g id="elem_Comment"><rect codeLine="100" fill="#F1F1F1" height="194.6719" id="Comment" rx="2.5" ry="2.5" style="stroke:#181818;stroke-width:0.5;" width="189.625" x="398.51" y="1107.17"/><ellipse cx="454.7766" cy="1123.17" fill="#ADD1B2" rx="11" ry="11" style="stroke:#181818;stroke-width:1;"/><path d="M458.886,1129.17 L451.1672,1129.17 L451.1672,1116.7794 L458.886,1116.7794 L458.886,1118.9356 L453.6204,1118.9356 L453.6204,1121.6075 L458.386,1121.6075 L458.386,1123.7638 L453.6204,1123.7638 L453.6204,1127.0138 L458.886,1127.0138 L458.886,1129.17 Z " fill="#000000"/><text fill="#000000" font-family="sans-serif" font-size="14" lengthAdjust="spacing" textLength="68.5918" x="475.2766" y="1128.0167">Comment</text><line style="stroke:#181818;stroke-width:0.5;" x1="399.51" x2="587.135" y1="1139.17" y2="1139.17"/><ellipse cx="409.51" cy="1152.8184" fill="#000000" rx="3" ry="3" style="stroke:#000000;stroke-width:1;"/><text fill="#000000" font-family="sans-serif" font-size="14" lengthAdjust="spacing" textLength="40.4346" x="418.51" y="1156.1651">id: Int</text><ellipse cx="409.51" cy="1169.1153" fill="#000000" rx="3" ry="3" style="stroke:#000000;stroke-width:1;"/><text fill="#000000" font-family="sans-serif" font-size="14" lengthAdjust="spacing" textLength="104.5488" x="418.51" y="1172.462">content: String</text><ellipse cx="409.51" cy="1185.4122" fill="#000000" rx="3" ry="3" style="stroke:#000000;stroke-width:1;"/><text fill="#000000" font-family="sans-serif" font-size="14" lengthAdjust="spacing" textLength="163.625" x="418.51" y="1188.7589">date_posted: DateTime</text><ellipse cx="409.51" cy="1201.7091" fill="#000000" rx="3" ry="3" style="stroke:#000000;stroke-width:1;"/><text fill="#000000" font-family="sans-serif" font-size="14" lengthAdjust="spacing" textLength="71.21" x="418.51" y="1205.0557">userId: Int</text><ellipse cx="409.51" cy="1218.0059" fill="#000000" rx="3" ry="3" style="stroke:#000000;stroke-width:1;"/><text fill="#000000" font-family="sans-serif" font-size="14" lengthAdjust="spacing" textLength="72.9873" x="418.51" y="1221.3526">User: User</text><text fill="#000000" font-family="sans-serif" font-size="14" lengthAdjust="spacing" textLength="106.5996" x="418.51" y="1237.6495">memoryId: Int?</text><text fill="#000000" font-family="sans-serif" font-size="14" lengthAdjust="spacing" textLength="130.4707" x="418.51" y="1253.9464">Memory: Memory?</text><text fill="#000000" font-family="sans-serif" font-size="14" lengthAdjust="spacing" textLength="87.9785" x="418.51" y="1270.2432">eventId: Int?</text><text fill="#000000" font-family="sans-serif" font-size="14" lengthAdjust="spacing" textLength="96.8105" x="418.51" y="1286.5401">Event: Event?</text><line style="stroke:#181818;stroke-width:0.5;" x1="399.51" x2="587.135" y1="1293.8419" y2="1293.8419"/></g><!--class Participant--><g id="elem_Participant"><rect codeLine="112" fill="#F1F1F1" height="129.4844" id="Participant" rx="2.5" ry="2.5" style="stroke:#181818;stroke-width:0.5;" width="115.3799" x="623.64" y="1139.77"/><ellipse cx="642.1539" cy="1155.77" fill="#ADD1B2" rx="11" ry="11" style="stroke:#181818;stroke-width:1;"/><path d="M646.2632,1161.77 L638.5445,1161.77 L638.5445,1149.3794 L646.2632,1149.3794 L646.2632,1151.5356 L640.9976,1151.5356 L640.9976,1154.2075 L645.7632,1154.2075 L645.7632,1156.3638 L640.9976,1156.3638 L640.9976,1159.6138 L646.2632,1159.6138 L646.2632,1161.77 Z " fill="#000000"/><text fill="#000000" font-family="sans-serif" font-size="14" lengthAdjust="spacing" textLength="75.5713" x="656.9347" y="1160.6167">Participant</text><line style="stroke:#181818;stroke-width:0.5;" x1="624.64" x2="738.0199" y1="1171.77" y2="1171.77"/><ellipse cx="634.64" cy="1185.4184" fill="#000000" rx="3" ry="3" style="stroke:#000000;stroke-width:1;"/><text fill="#000000" font-family="sans-serif" font-size="14" lengthAdjust="spacing" textLength="40.4346" x="643.64" y="1188.7651">id: Int</text><ellipse cx="634.64" cy="1201.7153" fill="#000000" rx="3" ry="3" style="stroke:#000000;stroke-width:1;"/><text fill="#000000" font-family="sans-serif" font-size="14" lengthAdjust="spacing" textLength="71.21" x="643.64" y="1205.062">userId: Int</text><ellipse cx="634.64" cy="1218.0122" fill="#000000" rx="3" ry="3" style="stroke:#000000;stroke-width:1;"/><text fill="#000000" font-family="sans-serif" font-size="14" lengthAdjust="spacing" textLength="80.5479" x="643.64" y="1221.3589">eventId: Int</text><ellipse cx="634.64" cy="1234.3091" fill="#000000" rx="3" ry="3" style="stroke:#000000;stroke-width:1;"/><text fill="#000000" font-family="sans-serif" font-size="14" lengthAdjust="spacing" textLength="72.9873" x="643.64" y="1237.6557">User: User</text><ellipse cx="634.64" cy="1250.6059" fill="#000000" rx="3" ry="3" style="stroke:#000000;stroke-width:1;"/><text fill="#000000" font-family="sans-serif" font-size="14" lengthAdjust="spacing" textLength="89.3799" x="643.64" y="1253.9526">Event: Event</text><line style="stroke:#181818;stroke-width:0.5;" x1="624.64" x2="738.0199" y1="1261.2544" y2="1261.2544"/></g><!--class Conversation--><g id="elem_Conversation"><rect codeLine="120" fill="#F1F1F1" height="129.4844" id="Conversation" rx="2.5" ry="2.5" style="stroke:#181818;stroke-width:0.5;" width="177.6621" x="774.49" y="1139.77"/><ellipse cx="813.3866" cy="1155.77" fill="#ADD1B2" rx="11" ry="11" style="stroke:#181818;stroke-width:1;"/><path d="M817.496,1161.77 L809.7772,1161.77 L809.7772,1149.3794 L817.496,1149.3794 L817.496,1151.5356 L812.2303,1151.5356 L812.2303,1154.2075 L816.996,1154.2075 L816.996,1156.3638 L812.2303,1156.3638 L812.2303,1159.6138 L817.496,1159.6138 L817.496,1161.77 Z " fill="#000000"/><text fill="#000000" font-family="sans-serif" font-size="14" lengthAdjust="spacing" textLength="92.5586" x="832.6969" y="1160.6167">Conversation</text><line style="stroke:#181818;stroke-width:0.5;" x1="775.49" x2="951.1521" y1="1171.77" y2="1171.77"/><ellipse cx="785.49" cy="1185.4184" fill="#000000" rx="3" ry="3" style="stroke:#000000;stroke-width:1;"/><text fill="#000000" font-family="sans-serif" font-size="14" lengthAdjust="spacing" textLength="63.7246" x="794.49" y="1188.7651">id: String</text><ellipse cx="785.49" cy="1201.7153" fill="#000000" rx="3" ry="3" style="stroke:#000000;stroke-width:1;"/><text fill="#000000" font-family="sans-serif" font-size="14" lengthAdjust="spacing" textLength="146.0225" x="794.49" y="1205.062">createdAt: DateTime</text><text fill="#000000" font-family="sans-serif" font-size="14" lengthAdjust="spacing" textLength="98.082" x="794.49" y="1221.3589">name: String?</text><ellipse cx="785.49" cy="1234.3091" fill="#000000" rx="3" ry="3" style="stroke:#000000;stroke-width:1;"/><text fill="#000000" font-family="sans-serif" font-size="14" lengthAdjust="spacing" textLength="151.6621" x="794.49" y="1237.6557">messages: Message[]</text><ellipse cx="785.49" cy="1250.6059" fill="#000000" rx="3" ry="3" style="stroke:#000000;stroke-width:1;"/><text fill="#000000" font-family="sans-serif" font-size="14" lengthAdjust="spacing" textLength="89.8311" x="794.49" y="1253.9526">users: User[]</text><line style="stroke:#181818;stroke-width:0.5;" x1="775.49" x2="951.1521" y1="1261.2544" y2="1261.2544"/></g><!--class Message--><g id="elem_Message"><rect codeLine="128" fill="#F1F1F1" height="162.0781" id="Message" rx="2.5" ry="2.5" style="stroke:#181818;stroke-width:0.5;" width="220.2842" x="987.18" y="1123.47"/><ellipse cx="1062.3924" cy="1139.47" fill="#ADD1B2" rx="11" ry="11" style="stroke:#181818;stroke-width:1;"/><path d="M1066.5018,1145.47 L1058.783,1145.47 L1058.783,1133.0794 L1066.5018,1133.0794 L1066.5018,1135.2356 L1061.2362,1135.2356 L1061.2362,1137.9075 L1066.0018,1137.9075 L1066.0018,1140.0638 L1061.2362,1140.0638 L1061.2362,1143.3138 L1066.5018,1143.3138 L1066.5018,1145.47 Z " fill="#000000"/><text fill="#000000" font-family="sans-serif" font-size="14" lengthAdjust="spacing" textLength="61.3594" x="1082.8924" y="1144.3167">Message</text><line style="stroke:#181818;stroke-width:0.5;" x1="988.18" x2="1206.4642" y1="1155.47" y2="1155.47"/><ellipse cx="998.18" cy="1169.1184" fill="#000000" rx="3" ry="3" style="stroke:#000000;stroke-width:1;"/><text fill="#000000" font-family="sans-serif" font-size="14" lengthAdjust="spacing" textLength="63.7246" x="1007.18" y="1172.4651">id: String</text><ellipse cx="998.18" cy="1185.4153" fill="#000000" rx="3" ry="3" style="stroke:#000000;stroke-width:1;"/><text fill="#000000" font-family="sans-serif" font-size="14" lengthAdjust="spacing" textLength="146.0225" x="1007.18" y="1188.762">createdAt: DateTime</text><ellipse cx="998.18" cy="1201.7122" fill="#000000" rx="3" ry="3" style="stroke:#000000;stroke-width:1;"/><text fill="#000000" font-family="sans-serif" font-size="14" lengthAdjust="spacing" textLength="104.5488" x="1007.18" y="1205.0589">content: String</text><ellipse cx="998.18" cy="1218.0091" fill="#000000" rx="3" ry="3" style="stroke:#000000;stroke-width:1;"/><text fill="#000000" font-family="sans-serif" font-size="14" lengthAdjust="spacing" textLength="88.71" x="1007.18" y="1221.3557">senderId: Int</text><ellipse cx="998.18" cy="1234.3059" fill="#000000" rx="3" ry="3" style="stroke:#000000;stroke-width:1;"/><text fill="#000000" font-family="sans-serif" font-size="14" lengthAdjust="spacing" textLength="89.1133" x="1007.18" y="1237.6526">sender: User</text><ellipse cx="998.18" cy="1250.6028" fill="#000000" rx="3" ry="3" style="stroke:#000000;stroke-width:1;"/><text fill="#000000" font-family="sans-serif" font-size="14" lengthAdjust="spacing" textLength="154.4443" x="1007.18" y="1253.9495">conversationId: String</text><ellipse cx="998.18" cy="1266.8997" fill="#000000" rx="3" ry="3" style="stroke:#000000;stroke-width:1;"/><text fill="#000000" font-family="sans-serif" font-size="14" lengthAdjust="spacing" textLength="194.2842" x="1007.18" y="1270.2464">Conversation: Conversation</text><line style="stroke:#181818;stroke-width:0.5;" x1="988.18" x2="1206.4642" y1="1277.5481" y2="1277.5481"/></g><!--link Faculty to Major--><g id="link_Faculty_Major"><path codeLine="138" d="M883.33,128.64 C883.33,154.57 883.33,169.38 883.33,196.22 " fill="none" id="Faculty-Major" style="stroke:#181818;stroke-width:1;stroke-dasharray:7.0,7.0;"/><line style="stroke:#181818;stroke-width:1;" x1="879.33" x2="887.33" y1="124.64" y2="124.64"/><line style="stroke:#181818;stroke-width:1;" x1="879.33" x2="887.33" y1="127.64" y2="127.64"/><line style="stroke:#181818;stroke-width:1;" x1="883.33" x2="883.33" y1="128.64" y2="120.64"/><line style="stroke:#181818;stroke-width:1;" x1="883.33" x2="889.33" y1="196.22" y2="204.22"/><line style="stroke:#181818;stroke-width:1;" x1="883.33" x2="877.33" y1="196.22" y2="204.22"/><line style="stroke:#181818;stroke-width:1;" x1="883.33" x2="883.33" y1="196.22" y2="204.22"/><line style="stroke:#181818;stroke-width:1;" x1="887.33" x2="879.33" y1="194.22" y2="194.22"/></g><!--link Faculty to Major--><g id="link_Faculty_Major"><path codeLine="140" d="M914.97,128.64 C914.97,154.57 914.97,169.38 914.97,196.22 " fill="none" id="Faculty-Major-1" style="stroke:#181818;stroke-width:1;stroke-dasharray:7.0,7.0;"/><line style="stroke:#181818;stroke-width:1;" x1="910.97" x2="918.97" y1="124.64" y2="124.64"/><line style="stroke:#181818;stroke-width:1;" x1="910.97" x2="918.97" y1="127.64" y2="127.64"/><line style="stroke:#181818;stroke-width:1;" x1="914.97" x2="914.97" y1="128.64" y2="120.64"/><line style="stroke:#181818;stroke-width:1;" x1="914.97" x2="920.97" y1="196.22" y2="204.22"/><line style="stroke:#181818;stroke-width:1;" x1="914.97" x2="908.97" y1="196.22" y2="204.22"/><line style="stroke:#181818;stroke-width:1;" x1="914.97" x2="914.97" y1="196.22" y2="204.22"/><line style="stroke:#181818;stroke-width:1;" x1="918.97" x2="910.97" y1="194.22" y2="194.22"/></g><!--link Faculty to Batch--><g id="link_Faculty_Batch"><path codeLine="139" d="M851.68,128.41 C851.68,163.22 851.68,193.14 851.68,193.14 C851.68,193.14 824.74,193.14 788.44,193.14 " fill="none" id="Faculty-Batch" style="stroke:#181818;stroke-width:1;stroke-dasharray:7.0,7.0;"/><line style="stroke:#181818;stroke-width:1;" x1="847.68" x2="855.68" y1="124.41" y2="124.41"/><line style="stroke:#181818;stroke-width:1;" x1="847.68" x2="855.68" y1="127.41" y2="127.41"/><line style="stroke:#181818;stroke-width:1;" x1="851.68" x2="851.68" y1="128.41" y2="120.41"/><line style="stroke:#181818;stroke-width:1;" x1="788.44" x2="780.44" y1="193.14" y2="199.14"/><line style="stroke:#181818;stroke-width:1;" x1="788.44" x2="780.44" y1="193.14" y2="187.14"/><line style="stroke:#181818;stroke-width:1;" x1="788.44" x2="780.44" y1="193.14" y2="193.14"/><line style="stroke:#181818;stroke-width:1;" x1="790.44" x2="790.44" y1="197.14" y2="189.14"/></g><!--link Batch to Student--><g id="link_Batch_Student"><path codeLine="141" d="M635.25,366.85 C635.25,404.93 635.25,432.5 635.25,467.41 " fill="none" id="Batch-Student" style="stroke:#181818;stroke-width:1;stroke-dasharray:7.0,7.0;"/><line style="stroke:#181818;stroke-width:1;" x1="631.25" x2="639.25" y1="362.85" y2="362.85"/><line style="stroke:#181818;stroke-width:1;" x1="631.25" x2="639.25" y1="365.85" y2="365.85"/><line style="stroke:#181818;stroke-width:1;" x1="635.25" x2="635.25" y1="366.85" y2="358.85"/><line style="stroke:#181818;stroke-width:1;" x1="635.25" x2="641.25" y1="467.41" y2="475.41"/><line style="stroke:#181818;stroke-width:1;" x1="635.25" x2="629.25" y1="467.41" y2="475.41"/><line style="stroke:#181818;stroke-width:1;" x1="635.25" x2="635.25" y1="467.41" y2="475.41"/><line style="stroke:#181818;stroke-width:1;" x1="639.25" x2="631.25" y1="465.41" y2="465.41"/></g><!--link Student to User--><g id="link_Student_User"><path codeLine="142" d="M592.33,620.56 C592.33,653.87 592.33,672.95 592.33,713.95 " fill="none" id="Student-User" style="stroke:#181818;stroke-width:1;stroke-dasharray:7.0,7.0;"/><line style="stroke:#181818;stroke-width:1;" x1="592.33" x2="592.33" y1="616.56" y2="605.56"/><ellipse cx="592.33" cy="616.56" fill="none" rx="4" ry="4" style="stroke:#181818;stroke-width:1;"/><line style="stroke:#181818;stroke-width:1;" x1="588.33" x2="596.33" y1="609.56" y2="609.56"/><line style="stroke:#181818;stroke-width:1;" x1="596.33" x2="588.33" y1="717.95" y2="717.95"/><line style="stroke:#181818;stroke-width:1;" x1="596.33" x2="588.33" y1="714.95" y2="714.95"/><line style="stroke:#181818;stroke-width:1;" x1="592.33" x2="592.33" y1="713.95" y2="721.95"/></g><!--link User to Socials--><g id="link_User_Socials"><path codeLine="143" d="M460.88,877.14 C306.86,877.14 65.33,877.14 65.33,877.14 C65.33,877.14 65.33,1035.97 65.33,1131.44 " fill="none" id="User-Socials" style="stroke:#181818;stroke-width:1;stroke-dasharray:7.0,7.0;"/><line style="stroke:#181818;stroke-width:1;" x1="464.88" x2="464.88" y1="873.14" y2="881.14"/><line style="stroke:#181818;stroke-width:1;" x1="461.88" x2="461.88" y1="873.14" y2="881.14"/><line style="stroke:#181818;stroke-width:1;" x1="460.88" x2="468.88" y1="877.14" y2="877.14"/><line style="stroke:#181818;stroke-width:1;" x1="65.33" x2="71.33" y1="1131.44" y2="1139.44"/><line style="stroke:#181818;stroke-width:1;" x1="65.33" x2="59.33" y1="1131.44" y2="1139.44"/><line style="stroke:#181818;stroke-width:1;" x1="65.33" x2="65.33" y1="1131.44" y2="1139.44"/><line style="stroke:#181818;stroke-width:1;" x1="69.33" x2="61.33" y1="1129.44" y2="1129.44"/></g><!--link Batch to Memory--><g id="link_Batch_Memory"><path codeLine="144" d="M734.4,366.85 C734.4,385.81 734.4,390.14 734.4,410.08 " fill="none" id="Batch-Memory" style="stroke:#181818;stroke-width:1;stroke-dasharray:7.0,7.0;"/><line style="stroke:#181818;stroke-width:1;" x1="730.4" x2="738.4" y1="362.85" y2="362.85"/><line style="stroke:#181818;stroke-width:1;" x1="730.4" x2="738.4" y1="365.85" y2="365.85"/><line style="stroke:#181818;stroke-width:1;" x1="734.4" x2="734.4" y1="366.85" y2="358.85"/><line style="stroke:#181818;stroke-width:1;" x1="734.4" x2="740.4" y1="410.08" y2="418.08"/><line style="stroke:#181818;stroke-width:1;" x1="734.4" x2="728.4" y1="410.08" y2="418.08"/><line style="stroke:#181818;stroke-width:1;" x1="734.4" x2="734.4" y1="410.08" y2="418.08"/><line style="stroke:#181818;stroke-width:1;" x1="738.4" x2="730.4" y1="408.08" y2="408.08"/></g><!--link User to Event--><g id="link_User_Event"><path codeLine="145" d="M508.79,1039.13 C508.79,1077.12 508.79,1099.14 508.79,1099.14 C508.79,1099.14 439.84,1099.14 371.76,1099.14 " fill="none" id="User-Event" style="stroke:#181818;stroke-width:1;stroke-dasharray:7.0,7.0;"/><line style="stroke:#181818;stroke-width:1;" x1="504.79" x2="512.79" y1="1035.13" y2="1035.13"/><line style="stroke:#181818;stroke-width:1;" x1="504.79" x2="512.79" y1="1038.13" y2="1038.13"/><line style="stroke:#181818;stroke-width:1;" x1="508.79" x2="508.79" y1="1039.13" y2="1031.13"/><line style="stroke:#181818;stroke-width:1;" x1="371.76" x2="363.76" y1="1099.14" y2="1105.14"/><line style="stroke:#181818;stroke-width:1;" x1="371.76" x2="363.76" y1="1099.14" y2="1093.14"/><line style="stroke:#181818;stroke-width:1;" x1="371.76" x2="363.76" y1="1099.14" y2="1099.14"/><line style="stroke:#181818;stroke-width:1;" x1="373.76" x2="373.76" y1="1103.14" y2="1095.14"/></g><!--link Memory to MemoryImage--><g id="link_Memory_MemoryImage"><path codeLine="146" d="M815.33,670.18 C815.33,723.92 815.33,768.49 815.33,811.5 " fill="none" id="Memory-MemoryImage" style="stroke:#181818;stroke-width:1;stroke-dasharray:7.0,7.0;"/><line style="stroke:#181818;stroke-width:1;" x1="811.33" x2="819.33" y1="666.18" y2="666.18"/><line style="stroke:#181818;stroke-width:1;" x1="811.33" x2="819.33" y1="669.18" y2="669.18"/><line style="stroke:#181818;stroke-width:1;" x1="815.33" x2="815.33" y1="670.18" y2="662.18"/><line style="stroke:#181818;stroke-width:1;" x1="815.33" x2="821.33" y1="811.5" y2="819.5"/><line style="stroke:#181818;stroke-width:1;" x1="815.33" x2="809.33" y1="811.5" y2="819.5"/><line style="stroke:#181818;stroke-width:1;" x1="815.33" x2="815.33" y1="811.5" y2="819.5"/><line style="stroke:#181818;stroke-width:1;" x1="819.33" x2="811.33" y1="809.5" y2="809.5"/></g><!--link User to Comment--><g id="link_User_Comment"><path codeLine="147" d="M548.46,1038.9 C548.46,1064.82 548.46,1075.06 548.46,1099.02 " fill="none" id="User-Comment" style="stroke:#181818;stroke-width:1;stroke-dasharray:7.0,7.0;"/><line style="stroke:#181818;stroke-width:1;" x1="544.46" x2="552.46" y1="1034.9" y2="1034.9"/><line style="stroke:#181818;stroke-width:1;" x1="544.46" x2="552.46" y1="1037.9" y2="1037.9"/><line style="stroke:#181818;stroke-width:1;" x1="548.46" x2="548.46" y1="1038.9" y2="1030.9"/><line style="stroke:#181818;stroke-width:1;" x1="548.46" x2="554.46" y1="1099.02" y2="1107.02"/><line style="stroke:#181818;stroke-width:1;" x1="548.46" x2="542.46" y1="1099.02" y2="1107.02"/><line style="stroke:#181818;stroke-width:1;" x1="548.46" x2="548.46" y1="1099.02" y2="1107.02"/><line style="stroke:#181818;stroke-width:1;" x1="552.46" x2="544.46" y1="1097.02" y2="1097.02"/></g><!--link User to Participant--><g id="link_User_Participant"><path codeLine="148" d="M650.94,1038.9 C650.94,1077.12 650.94,1100.03 650.94,1131.31 " fill="none" id="User-Participant" style="stroke:#181818;stroke-width:1;stroke-dasharray:7.0,7.0;"/><line style="stroke:#181818;stroke-width:1;" x1="646.94" x2="654.94" y1="1034.9" y2="1034.9"/><line style="stroke:#181818;stroke-width:1;" x1="646.94" x2="654.94" y1="1037.9" y2="1037.9"/><line style="stroke:#181818;stroke-width:1;" x1="650.94" x2="650.94" y1="1038.9" y2="1030.9"/><line style="stroke:#181818;stroke-width:1;" x1="650.94" x2="656.94" y1="1131.31" y2="1139.31"/><line style="stroke:#181818;stroke-width:1;" x1="650.94" x2="644.94" y1="1131.31" y2="1139.31"/><line style="stroke:#181818;stroke-width:1;" x1="650.94" x2="650.94" y1="1131.31" y2="1139.31"/><line style="stroke:#181818;stroke-width:1;" x1="654.94" x2="646.94" y1="1129.31" y2="1129.31"/></g><!--link User to Conversation--><g id="link_User_Conversation"><path codeLine="149" d="M713.8,982.14 C776.3,982.14 832.17,982.14 832.17,982.14 C832.17,982.14 832.17,1065.68 832.17,1131.29 " fill="none" id="User-Conversation" style="stroke:#181818;stroke-width:1;stroke-dasharray:7.0,7.0;"/><line style="stroke:#181818;stroke-width:1;" x1="713.8" x2="705.8" y1="982.14" y2="988.14"/><line style="stroke:#181818;stroke-width:1;" x1="713.8" x2="705.8" y1="982.14" y2="976.14"/><line style="stroke:#181818;stroke-width:1;" x1="713.8" x2="705.8" y1="982.14" y2="982.14"/><line style="stroke:#181818;stroke-width:1;" x1="715.8" x2="715.8" y1="986.14" y2="978.14"/><line style="stroke:#181818;stroke-width:1;" x1="832.17" x2="838.17" y1="1131.29" y2="1139.29"/><line style="stroke:#181818;stroke-width:1;" x1="832.17" x2="826.17" y1="1131.29" y2="1139.29"/><line style="stroke:#181818;stroke-width:1;" x1="832.17" x2="832.17" y1="1131.29" y2="1139.29"/><line style="stroke:#181818;stroke-width:1;" x1="836.17" x2="828.17" y1="1129.29" y2="1129.29"/></g><!--link User to Message--><g id="link_User_Message"><path codeLine="150" d="M678.24,1039.1 C678.24,1092.94 678.24,1132.14 678.24,1132.14 C678.24,1132.14 854.77,1132.14 978.94,1132.14 " fill="none" id="User-Message" style="stroke:#181818;stroke-width:1;stroke-dasharray:7.0,7.0;"/><line style="stroke:#181818;stroke-width:1;" x1="674.24" x2="682.24" y1="1035.1" y2="1035.1"/><line style="stroke:#181818;stroke-width:1;" x1="674.24" x2="682.24" y1="1038.1" y2="1038.1"/><line style="stroke:#181818;stroke-width:1;" x1="678.24" x2="678.24" y1="1039.1" y2="1031.1"/><line style="stroke:#181818;stroke-width:1;" x1="978.94" x2="986.94" y1="1132.14" y2="1126.14"/><line style="stroke:#181818;stroke-width:1;" x1="978.94" x2="986.94" y1="1132.14" y2="1138.14"/><line style="stroke:#181818;stroke-width:1;" x1="978.94" x2="986.94" y1="1132.14" y2="1132.14"/><line style="stroke:#181818;stroke-width:1;" x1="976.94" x2="976.94" y1="1128.14" y2="1136.14"/></g><!--SRC=[dLRDRjim3BxdANpUeG_WIx1r6v13W07TJaLXQBRQQh4jGv8x57NVVHH5fwGZf-ak4VM9ujz7qV47qm_AgQveJQ_3yw0BwyAZtMnq7qnuBhwhUcnXVTaKnQV2D6MnwmFAlUfqMTm4P_e71FRgZtLbMcxl4FgYGlrOfWMWrwDPH3vg584kIZjsXI8iPm71-oHplPimDk2zd0KASQyxw-1sMaMGwFII8CbRPTuBQxKU55F6sUYrIFSNx4lynUtlQ4euvZwOXtWZOrvtohGYcK5v_zUwXe63i_UcrTLWwZ2wO-xRbBnnFbGdDMdLAThe0Duylr_RFgWw26p9LF83ca_QUHMCxK7zccs9IW-wU-szUj0-4eeIdNrxWaD0SINiXtB1r6PGUC9sT7vjkoxT8ccjPR2zR6qKvfO4IM_2BkabU8S70Pnf0DQg64h6Ffosqe7fe2hLw5f1ZA-T6M8j9RcD2a2xzK63pQ-m-MawJN4UOfLdFwTz6EDURynCAwSSTZ6yac_EiF5M0EJrWlnNC_K1-AzYlej4b_KNYPyKCnfhRQrE7Ioo_P_cM_ADvSaatQLJXkH8NpOoCqykCwRZUwMtUJIptYHdXvU8CjP8XXCH7Lbb6iWoFU8jYvULxu8HogtcgE5UH57U9WxpmWfHEmtPDv-3A0D_ublY9p-aOg0-1R9W6xK-uZJF54p8HjOY8InvFcPtqXClW1p0CTRvdy8qNLrDB_J5Ne3fxMSrqpy2WcZmR-RFucG1dbAG-26RzT9SbPUfcxbUefA6f5339oHqgVS5nlehuQ-pBgi1lq2C_GC0]--></g></svg>